<mxfile host="app.diagrams.net" modified="2024-01-11T13:03:19.867Z" agent="Mozilla/5.0 (Windows NT 10.0; Win64; x64) AppleWebKit/537.36 (KHTML, like Gecko) Chrome/119.0.0.0 Safari/537.36 OPR/105.0.0.0" version="22.1.18" etag="kM7YLI_1UdxS6JMExyK2" type="github">
  <diagram name="Page-1" id="0s5O4vTVHFGrhhYo7e6w">
    <mxGraphModel>
      <root>
        <mxCell id="0" />
        <mxCell id="1" parent="0" />
      </root>
    </mxGraphModel>
  </diagram>
</mxfile>
